<?xml version="1.0" encoding="UTF-8"?>
<svg version="1.1" xmlns="http://www.w3.org/2000/svg" width="1200" height="300">
<path d="M0 0 C396 0 792 0 1200 0 C1200 99 1200 198 1200 300 C804 300 408 300 0 300 C0 201 0 102 0 0 Z " fill="#FEFEFE" transform="translate(0,0)"/>
<path d="M0 0 C7.27984498 2.71923621 13.15869622 8.41541704 18.984375 13.4140625 C24.92701726 18.50995521 30.98719486 23.47059812 37.1875 28.25 C41.41441773 31.51076511 45.55142243 34.87548437 49.6875 38.25 C54.75426201 42.38271237 59.84619268 46.47634212 65 50.5 C71.50431775 55.57966024 77.90782257 60.77821876 84.3046875 65.9921875 C88.84516069 69.69243078 93.41941359 73.34960093 98 77 C100.49502774 78.99523512 102.98920566 80.99129983 105.4765625 82.99609375 C107.20242359 84.3666305 108.94846489 85.712032 110.7109375 87.03515625 C111.59007812 87.70417969 112.46921875 88.37320313 113.375 89.0625 C114.16648437 89.65160156 114.95796875 90.24070312 115.7734375 90.84765625 C120.89853914 95.80192117 122.2432934 99.70595396 122.50793457 106.74827576 C122.53169828 109.52737786 122.53405605 112.30118184 122.51757812 115.07983398 C122.52300347 116.61467145 122.53012845 118.14950371 122.53881836 119.68432617 C122.5570073 123.8394056 122.55000226 127.99408641 122.53730202 132.14917254 C122.52714947 136.50563271 122.53657412 140.86205956 122.54284668 145.21852112 C122.55011731 152.53449608 122.54055158 159.85030937 122.52148438 167.16625977 C122.49972484 175.61252417 122.50676258 184.05840219 122.52879 192.50465721 C122.54697043 199.76774181 122.54948918 207.03071041 122.53903532 214.29381043 C122.53281384 218.62672349 122.5319274 222.95945523 122.54518127 227.29235649 C122.55677746 231.36780916 122.54864586 235.44276619 122.52560425 239.51816559 C122.52033682 241.00964347 122.52179714 242.5011634 122.53065491 243.99262428 C122.58566809 254.20063678 121.76600699 261.7183576 114.3125 269.375 C113.71050781 270.02210938 113.10851562 270.66921875 112.48828125 271.3359375 C106.56115193 275.29976339 99.00927823 275.29157274 92.08374023 275.22705078 C91.24361893 275.22734283 90.40349762 275.22763489 89.53791809 275.22793579 C86.79470038 275.22655601 84.05176329 275.21105934 81.30859375 275.1953125 C79.39331714 275.19157755 77.47803861 275.18873286 75.5627594 275.18673706 C70.54701364 275.17913855 65.53138561 275.1595229 60.51568604 275.1373291 C55.38742668 275.11678881 50.2591481 275.10771791 45.13085938 275.09765625 C35.08718815 275.07627315 25.04360391 275.04218334 15 275 C14.93046593 272.92886456 14.8809522 270.85705081 14.83984375 268.78515625 C14.81011475 267.63152588 14.78038574 266.47789551 14.74975586 265.28930664 C15.13843817 260.18031464 17.30232924 257.37360523 21 254 C28.16677382 247.9238222 33.51889582 249.65506901 44 249 C44.33 237.45 44.66 225.9 45 214 C43.35 213.34 41.7 212.68 40 212 C33.30308248 206.00455993 29.49980254 200.83340965 28.7265625 191.80859375 C28.36430364 183.81302321 29.00496117 177.45336052 34 171 C41.1386983 164.17385416 46.5367168 162.55666638 56.3515625 162.66796875 C62.90599767 163.26446446 67.61666498 165.46825217 72.1328125 170.265625 C78.62536929 178.41417806 79.06642052 185.8187924 78 196 C76.00640841 203.39678375 71.32914105 208.78057264 65 213 C64.34 213 63.68 213 63 213 C63 225.21 63 237.42 63 250 C74.22 249.67 85.44 249.34 97 249 C97.24866828 231.04928047 97.45114104 213.10003892 97.56993389 195.1480732 C97.62656678 186.81195378 97.70372062 178.47698329 97.82983398 170.14160156 C97.93975107 162.87321489 98.01050416 155.60566044 98.03497344 148.33646572 C98.04927042 144.48977315 98.0826642 140.64546048 98.16303062 136.79953384 C98.23820382 133.17243743 98.26063364 129.54867892 98.24418449 125.92087746 C98.24861243 123.96859026 98.30755872 122.0166599 98.36862183 120.06532288 C98.29950591 114.65667459 98.06328566 111.31560678 94.59406471 107.02312851 C91.91655171 104.43216862 89.00526148 102.20085313 86 100 C84.79397854 99.01656221 83.59030746 98.03022325 82.390625 97.0390625 C81.35421875 96.24242188 80.3178125 95.44578125 79.25 94.625 C78.06198013 93.70509809 76.87449978 92.78449907 75.6875 91.86328125 C75.08550781 91.39744629 74.48351562 90.93161133 73.86328125 90.45166016 C70.63431633 87.93601218 67.44289189 85.37367127 64.25 82.8125 C63.61553955 82.30420654 62.9810791 81.79591309 62.32739258 81.2722168 C59.65845219 79.133511 56.99109091 76.99284672 54.32421875 74.8515625 C50.27876124 71.60725124 46.2183316 68.38415234 42.1340332 65.18896484 C34.91842667 59.5426651 27.79263418 53.79320506 20.69140625 48.00390625 C16.94261604 44.94866604 13.17025746 41.92416327 9.37890625 38.921875 C7.5939603 37.4798497 5.83505322 36.0054951 4.08984375 34.515625 C3.11144531 33.68546875 2.13304687 32.8553125 1.125 32 C0.24070313 31.236875 -0.64359375 30.47375 -1.5546875 29.6875 C-4.05351849 27.62134752 -4.05351849 27.62134752 -8 28 C-10.33890399 29.76743374 -12.46422432 31.53589758 -14.625 33.5 C-15.88954603 34.61710798 -17.15517426 35.73299212 -18.421875 36.84765625 C-19.34516602 37.66580811 -19.34516602 37.66580811 -20.28710938 38.50048828 C-23.1910857 41.04270929 -26.21960732 43.41923231 -29.24609375 45.8125 C-32.83180447 48.66072412 -36.38483486 51.54822469 -39.9375 54.4375 C-40.63343262 55.00331787 -41.32936523 55.56913574 -42.04638672 56.15209961 C-46.74420972 59.97371063 -51.4329628 63.80626355 -56.1171875 67.64453125 C-58.93944999 69.95052621 -61.76839036 72.24806323 -64.59887695 74.54394531 C-71.74545821 80.34112389 -78.86634236 86.16824122 -85.96386719 92.02539062 C-89.10572511 94.61797269 -92.24931109 97.20792492 -95.41015625 99.77734375 C-96.38855469 100.57269531 -97.36695313 101.36804688 -98.375 102.1875 C-99.62410156 103.19876953 -99.62410156 103.19876953 -100.8984375 104.23046875 C-102.99015681 105.92756328 -102.99015681 105.92756328 -104.6640625 107.73828125 C-106 109 -106 109 -108 109 C-108 155.53 -108 202.06 -108 250 C-95.46 250 -82.92 250 -70 250 C-69.88710607 238.48879009 -69.88710607 238.48879009 -69.8671875 226.97851562 C-69.87963535 222.27738269 -69.88161651 217.57800069 -69.81835938 212.87719727 C-69.76799465 209.08322424 -69.76700207 205.29204774 -69.79904556 201.49790764 C-69.80277288 200.05671053 -69.78924403 198.61535379 -69.75750351 197.17450142 C-69.52124987 188.66395934 -69.52124987 188.66395934 -73.1963501 181.21505737 C-75.80863389 178.82246834 -75.80863389 178.82246834 -78.54934692 176.88804626 C-83.67541059 172.93879476 -85.61127826 167.84414737 -86.46875 161.5703125 C-86.85834989 152.51211515 -85.09438601 146.86565407 -79.3203125 140.00390625 C-74.06274681 134.38415271 -69.60498503 131.86070462 -61.8125 131.4375 C-53.88146767 131.64573487 -47.56991655 134.25803928 -42.0546875 140.0390625 C-40.55335649 141.97556191 -39.23021076 143.88249437 -38 146 C-37.62875 146.59296875 -37.2575 147.1859375 -36.875 147.796875 C-34.52360772 153.71734486 -35.13770982 161.8647799 -36.8046875 167.92578125 C-39.68013038 174.30133219 -44.30621572 178.99533443 -50 183 C-50.66 183 -51.32 183 -52 183 C-52 213.69 -52 244.38 -52 276 C-66.788125 276.12375 -66.788125 276.12375 -81.875 276.25 C-84.96858887 276.28641602 -88.06217773 276.32283203 -91.24951172 276.36035156 C-93.72622994 276.37204388 -96.20295589 276.38223442 -98.6796875 276.390625 C-99.94562744 276.41108887 -101.21156738 276.43155273 -102.51586914 276.45263672 C-111.0666953 276.45597754 -118.5578651 275.56815389 -125.40234375 270.0703125 C-125.90894531 269.42835938 -126.41554688 268.78640625 -126.9375 268.125 C-127.46214844 267.48820312 -127.98679687 266.85140625 -128.52734375 266.1953125 C-131.84608349 261.24801348 -133.37469877 257.40677855 -133.39440918 251.41667175 C-133.40575897 250.10882217 -133.41710876 248.8009726 -133.42880249 247.45349121 C-133.42615949 246.01611266 -133.42318832 244.57873469 -133.41992188 243.14135742 C-133.42726637 241.61814249 -133.43585371 240.09493311 -133.44558716 238.57173157 C-133.46777441 234.44346561 -133.47073517 230.31539944 -133.46883965 226.18708205 C-133.46871979 222.73549044 -133.47729024 219.28394092 -133.48561716 215.83236104 C-133.50484202 207.68533117 -133.50773875 199.53840376 -133.50097656 191.39135742 C-133.49433955 183.00018891 -133.51718836 174.6094604 -133.55429029 166.21838111 C-133.58503109 159.00286687 -133.59634249 151.78749383 -133.59245348 144.57191545 C-133.59039012 140.26738974 -133.59580067 135.96320633 -133.62034607 131.6587429 C-133.64268275 127.60787034 -133.64067863 123.55771046 -133.62041855 119.50683403 C-133.61702041 118.02543835 -133.62204586 116.54399405 -133.63640213 115.06266403 C-133.72666587 105.05327157 -132.81159339 97.9324877 -125.66796875 90.609375 C-124.84941406 89.99578125 -124.03085938 89.3821875 -123.1875 88.75 C-122.23230469 88.01265625 -121.27710937 87.2753125 -120.29296875 86.515625 C-119.77009277 86.11923828 -119.2472168 85.72285156 -118.70849609 85.31445312 C-115.41544151 82.78089984 -112.21705162 80.12886218 -109 77.5 C-107.61360874 76.37329483 -106.22689545 75.24698578 -104.83984375 74.12109375 C-97.03415382 67.77861345 -89.26253546 61.39516492 -81.5 55 C-73.80811638 48.66304159 -66.1105187 42.33357898 -58.37109375 36.0546875 C-57.3972876 35.26457275 -57.3972876 35.26457275 -56.40380859 34.45849609 C-55.04621742 33.35706653 -53.68846884 32.25583096 -52.33056641 31.15478516 C-48.02649272 27.66031856 -43.74519904 24.13973321 -39.47558594 20.60327148 C-12.6597344 -1.59698484 -12.6597344 -1.59698484 0 0 Z " fill="#0F3D54" transform="translate(206,11)"/>
<path d="M0 0 C7.26 0 14.52 0 22 0 C22 15.51 22 31.02 22 47 C37.51 47 53.02 47 69 47 C68.96039251 31.90635432 68.96039251 31.90635432 68.90991211 16.81274414 C68.90699308 14.92854875 68.90444449 13.04435273 68.90234375 11.16015625 C68.89722778 10.17204956 68.89211182 9.18394287 68.88684082 8.16589355 C68.88665955 6.76518616 68.88665955 6.76518616 68.88647461 5.33618164 C68.884254 4.52121719 68.88203339 3.70625275 68.87974548 2.86659241 C69 1 69 1 70 0 C76.93 0 83.86 0 91 0 C91 38.28 91 76.56 91 116 C83.74 116 76.48 116 69 116 C69 99.5 69 83 69 66 C53.49 66 37.98 66 22 66 C22 82.5 22 99 22 116 C14.74 116 7.48 116 0 116 C0 77.72 0 39.44 0 0 Z " fill="#093C56" transform="translate(703,105)"/>
<path d="M0 0 C5.57408596 3.881652 10.69387992 8.45221884 13 15 C13.55513708 20.04219659 13.46638937 25.05831802 13.390625 30.12109375 C13.38315493 31.59081753 13.37746562 33.06055135 13.37347412 34.5302887 C13.35827776 38.37905888 13.31904931 42.22721523 13.2746582 46.07574463 C13.23357482 50.01069843 13.21543537 53.94575244 13.1953125 57.88085938 C13.15254767 65.58755044 13.08224873 73.29361064 13 81 C6.73 81 0.46 81 -6 81 C-6 77.37 -6 73.74 -6 70 C-6.66 70 -7.32 70 -8 70 C-8.20625 70.721875 -8.4125 71.44375 -8.625 72.1875 C-11.03726113 77.1216705 -14.90271088 79.78745682 -19.875 81.8125 C-24.24279103 83.11243781 -28.59477459 83.31409028 -33.125 83.375 C-33.7938623 83.38893799 -34.46272461 83.40287598 -35.15185547 83.41723633 C-43.08877604 83.34191677 -48.53529812 80.09785172 -54.203125 74.90234375 C-58.68458002 70.1578468 -60.82152186 65.15311385 -61.1875 58.6875 C-60.73976956 49.88213474 -57.33461336 44.88947836 -51 39 C-47.64542813 36.69879611 -44.55130529 35.39876442 -40.625 34.375 C-39.73039063 34.13523438 -38.83578125 33.89546875 -37.9140625 33.6484375 C-30.75173314 32.0546752 -23.62037381 31.71141494 -16.3203125 31.39453125 C-13.01125538 31.23405858 -10.15958618 31.05319539 -7 30 C-6.79349224 24.94055982 -7.05839754 20.71532026 -9 16 C-11.41499457 14.53335352 -11.41499457 14.53335352 -14 14 C-14.66 13.67 -15.32 13.34 -16 13 C-21.30130358 12.52233454 -26.25343446 12.10889513 -31.0625 14.5625 C-33.58538531 17.51663919 -33.58538531 17.51663919 -36 24 C-42.93 24 -49.86 24 -57 24 C-57 15.48663284 -54.90578631 10.98147984 -48.984375 4.9453125 C-35.96434021 -5.9671627 -15.12476678 -8.15640747 0 0 Z " fill="#0C3D56" transform="translate(866,139)"/>
<path d="M0 0 C9.0196774 6.18202608 14.24454751 15.44635005 17.0234375 25.8671875 C17.98982148 32.06815135 17.7734375 38.40387276 17.7734375 44.6796875 C-1.3665625 44.6796875 -20.5065625 44.6796875 -40.2265625 44.6796875 C-37.60602114 54.91318851 -37.60602114 54.91318851 -30.9921875 62.3125 C-25.98119165 64.78968721 -20.68055555 64.29686753 -15.2265625 63.6796875 C-11.08768056 62.26539619 -8.68230721 60.36330457 -6.2265625 56.6796875 C-3.97998047 56.33911133 -3.97998047 56.33911133 -1.21875 56.38671875 C-0.23261719 56.39638672 0.75351563 56.40605469 1.76953125 56.41601562 C2.80207031 56.44115234 3.83460937 56.46628906 4.8984375 56.4921875 C6.45884766 56.51249023 6.45884766 56.51249023 8.05078125 56.53320312 C10.62551377 56.56863522 13.1992208 56.61803529 15.7734375 56.6796875 C13.94945325 64.64476617 8.40339068 71.09618921 1.7734375 75.6796875 C-5.88690513 80.34987627 -13.77629383 82.06295804 -22.6640625 81.9921875 C-23.40906006 81.98654785 -24.15405762 81.9809082 -24.92163086 81.97509766 C-35.36377498 81.74464719 -42.47076187 78.34243824 -49.91796875 71.015625 C-59.85418967 60.10819451 -61.63167061 46.83342644 -61.50390625 32.56640625 C-60.6372456 20.4209506 -55.66860101 10.70663891 -46.9765625 2.3671875 C-33.85451701 -8.48123625 -14.47690137 -8.58454853 0 0 Z " fill="#0B3C54" transform="translate(1029.2265625,140.3203125)"/>
<path d="M0 0 C4.67538847 3.30371815 7.4137854 7.37154217 10.1875 12.3125 C10.785625 13.34375 11.38375 14.375 12 15.4375 C15.58406032 24.11469866 14.1875 34.29816786 14.1875 43.3125 C-4.6225 43.3125 -23.4325 43.3125 -42.8125 43.3125 C-39.95623904 53.83203646 -39.95623904 53.83203646 -33.4296875 61.1640625 C-27.91464749 63.58409498 -21.66571071 63.21702752 -15.8125 62.3125 C-12.85623466 60.93652318 -11.24073694 59.98103241 -9.47851562 57.22998047 C-7.8125 55.3125 -7.8125 55.3125 -5.54418945 54.85839844 C-4.68011475 54.8793457 -3.81604004 54.90029297 -2.92578125 54.921875 C-1.98798828 54.93476563 -1.05019531 54.94765625 -0.08398438 54.9609375 C0.89248047 54.99445313 1.86894531 55.02796875 2.875 55.0625 C3.86306641 55.08054688 4.85113281 55.09859375 5.86914062 55.1171875 C8.30956842 55.16434553 10.74804769 55.23013958 13.1875 55.3125 C11.87057496 62.98165168 7.08607098 68.46763323 1.1875 73.3125 C-9.98838616 80.6533619 -22.93330997 82.35275982 -36.125 79.6875 C-47.28178017 75.52734468 -54.66454505 69.06723387 -59.70703125 58.296875 C-64.74214136 44.70385689 -65.65960876 29.35295109 -60.03125 15.8046875 C-55.25184051 6.03140783 -48.90948333 -0.74300117 -38.8125 -5.125 C-25.4023724 -9.47575769 -11.91179673 -7.09176621 0 0 Z " fill="#0B3C54" transform="translate(499.8125,141.6875)"/>
<path d="M0 0 C7.72287188 3.09264326 11.2851901 7.96248865 14.68359375 15.19921875 C17.20693895 21.13058795 17.55605267 26.56381452 15.4140625 32.62890625 C12.7074462 39.09190124 8.64618784 45.79644575 2.00390625 48.64453125 C1.23175781 48.928125 0.45960938 49.21171875 -0.3359375 49.50390625 C-0.28708405 50.13156891 -0.23823059 50.75923157 -0.18789673 51.40591431 C0.30633014 58.05663728 0.63338597 64.7020454 0.87255859 71.36669922 C0.9819135 73.83760703 1.13110423 76.30713515 1.32373047 78.77294922 C2.88587037 99.31467118 2.88587037 99.31467118 -2.53607178 106.36468506 C-5.35577155 109.11930465 -8.27515209 111.70513572 -11.3046875 114.22265625 C-18.49379166 120.2198036 -23.4443864 125.49705413 -24.45264626 135.15383339 C-24.93634468 142.17607128 -24.680154 149.1982972 -24.31011963 156.21893311 C-24.14236436 159.87228154 -24.10489577 163.52707588 -24.0546875 167.18359375 C-23.93866743 174.29744795 -23.67249727 181.39655581 -23.3359375 188.50390625 C-29.6059375 188.50390625 -35.8759375 188.50390625 -42.3359375 188.50390625 C-42.49453091 180.29748141 -42.62275734 172.09226154 -42.6986227 163.88471222 C-42.73504764 160.07294975 -42.78439323 156.26229619 -42.86401367 152.45117188 C-42.94046917 148.76819586 -42.98200846 145.08628138 -43.0000782 141.40257263 C-43.01294267 140.00230711 -43.03806544 138.60209516 -43.0760479 137.20228577 C-43.39690384 124.87940243 -43.39690384 124.87940243 -38.94140625 119.72998047 C-37.76849165 118.62316312 -36.56938357 117.54284037 -35.3359375 116.50390625 C-34.55347656 115.71242188 -33.77101562 114.9209375 -32.96484375 114.10546875 C-31.59120037 112.791549 -30.21620674 111.47903937 -28.83984375 110.16796875 C-28.01355469 109.28882813 -27.18726563 108.4096875 -26.3359375 107.50390625 C-25.65966309 106.95331543 -24.98338867 106.40272461 -24.28662109 105.83544922 C-19.05764439 100.82420177 -17.85106913 96.35147378 -17.57911682 89.33798218 C-17.53704031 84.0125832 -17.668479 78.70124276 -17.8359375 73.37890625 C-17.8761123 71.16022043 -17.91260601 68.94146473 -17.9453125 66.72265625 C-18.03299492 61.31486894 -18.16645049 55.90971557 -18.3359375 50.50390625 C-19.45121826 49.88966797 -20.56649902 49.27542969 -21.71557617 48.64257812 C-24.93310136 46.87053363 -26.7122899 45.1890054 -28.6484375 42.00390625 C-29.11894531 41.25109375 -29.58945313 40.49828125 -30.07421875 39.72265625 C-30.69876953 38.624375 -30.69876953 38.624375 -31.3359375 37.50390625 C-31.71234375 36.91996094 -32.08875 36.33601563 -32.4765625 35.734375 C-34.91883085 29.39557852 -34.35286356 20.13225893 -32.53125 13.6328125 C-26.07579396 0.788681 -13.34893435 -2.83497435 0 0 Z " fill="#0B949F" transform="translate(217.3359375,97.49609375)"/>
<path d="M0 0 C3.14581423 -0.02888514 6.29159469 -0.04675923 9.4375 -0.0625 C10.33533203 -0.07087891 11.23316406 -0.07925781 12.15820312 -0.08789062 C13.01220703 -0.09111328 13.86621094 -0.09433594 14.74609375 -0.09765625 C15.93223267 -0.10551147 15.93223267 -0.10551147 17.14233398 -0.11352539 C19 0 19 0 20 1 C20.0928726 2.41225046 20.11746772 3.82908934 20.11352539 5.24438477 C20.11344986 6.14524307 20.11337433 7.04610138 20.11329651 7.97425842 C20.10813522 8.95341721 20.10297394 9.93257599 20.09765625 10.94140625 C20.0962413 11.93881332 20.09482635 12.9362204 20.09336853 13.96385193 C20.08775114 17.16343124 20.07519571 20.36294169 20.0625 23.5625 C20.05748724 25.72591045 20.05292395 27.88932199 20.04882812 30.05273438 C20.03777607 35.36851325 20.02102104 40.68425171 20 46 C20.40724808 45.5148996 20.81449615 45.02979919 21.23408508 44.52999878 C21.77083359 43.8960318 22.30758209 43.26206482 22.8605957 42.60888672 C23.39159378 41.97941132 23.92259186 41.34993591 24.46968079 40.7013855 C26.20380087 38.77341731 27.94512118 37.42298375 30.1875 36.125 C30.84105469 35.73570312 31.49460937 35.34640625 32.16796875 34.9453125 C39.1774935 31.32845751 49.09952808 31.82421814 56.51171875 34.05859375 C64.0504002 37.54889921 69.02597986 41.91998692 72.05368042 49.71157837 C73.06511061 53.22625668 73.24104081 56.0883489 73.22705078 59.73974609 C73.22734283 60.38435791 73.22763489 61.02896973 73.22793579 61.69311523 C73.22655315 63.80336423 73.21104311 65.91325092 73.1953125 68.0234375 C73.19157856 69.49459643 73.18873339 70.96575785 73.18673706 72.43692017 C73.17913056 76.29371098 73.159508 80.15034921 73.1373291 84.00708008 C73.11680613 87.94870948 73.10772159 91.89036373 73.09765625 95.83203125 C73.07625901 103.55476484 73.04110151 111.27734153 73 119 C66.4 119 59.8 119 53 119 C52.98541748 117.34025146 52.97083496 115.68050293 52.95581055 113.97045898 C52.89774258 107.79966933 52.82050909 101.62924131 52.73754883 95.45874023 C52.702711 92.79040589 52.67629674 90.1223661 52.65356445 87.45385742 C52.61994585 83.61346857 52.56762359 79.77371498 52.51171875 75.93359375 C52.50532883 74.74479111 52.4989389 73.55598846 52.49235535 72.3311615 C52.36011699 64.84457328 52.06748684 59.14821018 46.625 53.5625 C41.23761726 51.24035227 35.77606434 51.01684011 30 52 C25.54409826 55.00383866 22.67254172 58.08927945 21.44165039 63.41650391 C20.80357619 68.59375822 20.76232037 73.74875593 20.68359375 78.9609375 C20.66281265 80.10664215 20.64203156 81.2523468 20.62062073 82.43276978 C20.55541782 86.08012086 20.49637648 89.72754184 20.4375 93.375 C20.39428695 95.85287171 20.35067178 98.33073644 20.30664062 100.80859375 C20.19976648 106.8723227 20.09794651 112.93612063 20 119 C16.85418577 119.02888514 13.70840531 119.04675923 10.5625 119.0625 C9.66466797 119.07087891 8.76683594 119.07925781 7.84179688 119.08789062 C6.56079102 119.09272461 6.56079102 119.09272461 5.25390625 119.09765625 C4.46314697 119.10289307 3.6723877 119.10812988 2.85766602 119.11352539 C1 119 1 119 0 118 C-0.09581822 116.46914161 -0.12188108 114.93386244 -0.12025452 113.40000916 C-0.12162918 112.40576431 -0.12300385 111.41151947 -0.12442017 110.387146 C-0.12082489 109.28735413 -0.11722961 108.18756226 -0.11352539 107.05444336 C-0.11367142 105.90337601 -0.11381744 104.75230865 -0.1139679 103.56636047 C-0.11326818 99.74083609 -0.10547302 95.91535969 -0.09765625 92.08984375 C-0.09579228 89.44568407 -0.09436828 86.80152404 -0.09336853 84.15736389 C-0.09025549 77.89584583 -0.08204248 71.63434514 -0.07201904 65.37283474 C-0.06085705 58.24598463 -0.05534724 51.1191337 -0.05032361 43.99227703 C-0.03985984 29.3281757 -0.02226093 14.66408809 0 0 Z " fill="#0B3C56" transform="translate(613,102)"/>
<path d="M0 0 C28.05 0 56.1 0 85 0 C85 6.6 85 13.2 85 20 C74.77 20 64.54 20 54 20 C54 51.68 54 83.36 54 116 C46.41 116 38.82 116 31 116 C31 84.32 31 52.64 31 20 C20.77 20 10.54 20 0 20 C0 13.4 0 6.8 0 0 Z " fill="#0F4058" transform="translate(361,105)"/>
<path d="M0 0 C4.90875645 3.01967233 8.17916552 6.53704797 11.0625 11.5 C11.619375 12.38945312 11.619375 12.38945312 12.1875 13.296875 C14.53889228 19.21734486 13.92479018 27.3647799 12.2578125 33.42578125 C9.38236962 39.80133219 4.75628428 44.49533443 -0.9375 48.5 C-1.5975 48.5 -2.2575 48.5 -2.9375 48.5 C-2.9375 79.19 -2.9375 109.88 -2.9375 141.5 C-23.0675 141.5 -43.1975 141.5 -63.9375 141.5 C-63.9375 141.17 -63.9375 140.84 -63.9375 140.5 C-49.4175 140.5 -34.8975 140.5 -19.9375 140.5 C-20.10378906 137.07625 -20.27007812 133.6525 -20.44140625 130.125 C-20.86576773 120.43434018 -20.98034998 110.77272059 -20.91465378 101.07608032 C-20.88975577 96.7506317 -20.89261748 92.42507384 -20.89253807 88.0995636 C-20.88971823 84.40031611 -20.86793367 80.70274022 -20.81079102 77.00390625 C-20.75541869 73.34326267 -20.74917311 69.6853773 -20.77548409 66.02444458 C-20.77729124 63.99642271 -20.72825995 61.96855491 -20.67771912 59.94116211 C-20.74634005 52.82259869 -20.74634005 52.82259869 -24.13162231 46.77075195 C-26.74768661 44.37846671 -26.74768661 44.37846671 -29.48561096 42.41894531 C-34.5909225 38.42332663 -36.54596324 33.36474398 -37.40625 27.0703125 C-37.79584989 18.01211515 -36.03188601 12.36565407 -30.2578125 5.50390625 C-21.89932444 -3.43038877 -11.1983717 -5.61448417 0 0 Z " fill="#0D96A0" transform="translate(156.9375,145.5)"/>
<path d="M0 0 C1.05453369 0.00858032 1.05453369 0.00858032 2.13037109 0.01733398 C9.30958015 0.26202357 14.81831104 2.283689 20.1171875 7.25 C28.40544247 16.45035958 27.3947661 26.82299394 27.34765625 38.625 C27.3457878 39.98120064 27.34436592 41.33740196 27.34336853 42.69360352 C27.33957696 46.23795483 27.32977595 49.78226421 27.31866455 53.32659912 C27.30837762 56.95340406 27.30385541 60.58021588 27.29882812 64.20703125 C27.28815018 71.30470614 27.27058117 78.4023459 27.25 85.5 C20.65 85.5 14.05 85.5 7.25 85.5 C7.24589111 83.77442871 7.24178223 82.04885742 7.23754883 80.27099609 C7.2181146 74.55511591 7.17574964 68.83971001 7.11790943 63.12409019 C7.08368936 59.6602763 7.05853743 56.19690106 7.05444336 52.73291016 C7.04932708 48.74602134 7.00416851 44.76005967 6.95703125 40.7734375 C6.9609639 39.53572601 6.96489655 38.29801453 6.96894836 37.02279663 C6.99490759 29.89826652 6.99490759 29.89826652 3.8425293 23.75634766 C-0.9935388 19.54738812 -5.05136462 19.08499767 -11.3203125 19.26171875 C-15.51783782 19.67337316 -18.24297659 20.81657483 -21.0813446 23.98718262 C-25.51187378 30.23776425 -25.481876 36.05352202 -25.45703125 43.53125 C-25.47215256 44.76290894 -25.48727386 45.99456787 -25.50285339 47.2635498 C-25.54564944 51.1758873 -25.55456136 55.08745198 -25.5625 59 C-25.58289857 61.66152772 -25.61101641 64.32290465 -25.63867188 66.984375 C-25.70144544 73.48965143 -25.73384383 79.99444752 -25.75 86.5 C-32.02 86.5 -38.29 86.5 -44.75 86.5 C-44.75 58.78 -44.75 31.06 -44.75 2.5 C-38.48 2.5 -32.21 2.5 -25.75 2.5 C-25.75 6.46 -25.75 10.42 -25.75 14.5 C-25.09 14.5 -24.43 14.5 -23.75 14.5 C-23.49734375 13.91347656 -23.2446875 13.32695312 -22.984375 12.72265625 C-21.60503453 10.23897041 -20.14230494 8.79333393 -18 6.9375 C-17.34515625 6.35871094 -16.6903125 5.77992188 -16.015625 5.18359375 C-10.85173287 1.3462877 -6.39726934 -0.06046713 0 0 Z " fill="#063953" transform="translate(1104.75,134.5)"/>
<path d="M0 0 C5.66607832 4.66271029 9.99214549 11.12794017 11.625 18.3125 C11.625 19.9625 11.625 21.6125 11.625 23.3125 C4.695 23.3125 -2.235 23.3125 -9.375 23.3125 C-10.695 20.6725 -12.015 18.0325 -13.375 15.3125 C-17.21145104 11.37767842 -20.57845748 11.00532066 -25.875 10.8125 C-32.6787156 11.03696843 -35.79839238 12.80746481 -40.625 17.5 C-45.84927818 25.89616135 -45.52671319 37.57642956 -43.91015625 47.03125 C-42.35080992 52.41976038 -39.45846047 56.49065399 -35.375 60.3125 C-32.27479734 61.86260133 -29.02592097 61.62045676 -25.625 61.6875 C-24.56925781 61.74357422 -24.56925781 61.74357422 -23.4921875 61.80078125 C-19.41949092 61.86891186 -17.65059926 61.48854067 -14.109375 59.2265625 C-10.78597912 55.91088346 -10.78597912 55.91088346 -7.375 49.3125 C-1.105 49.3125 5.165 49.3125 11.625 49.3125 C10.42738703 58.89340374 7.50703404 65.43046596 0.625 72.3125 C-11.09880975 80.90446602 -23.00479812 81.19095583 -37.0546875 80.10546875 C-44.77378217 78.85557975 -50.78582867 73.90167133 -56.1875 68.5 C-66.0458802 54.13493171 -67.66636281 38.39670239 -64.6875 21.38671875 C-61.23663331 10.30080951 -54.55352825 1.4229096 -44.25 -4 C-31.1877626 -10.42271839 -11.71977166 -7.89380493 0 0 Z " fill="#0D3D55" transform="translate(590.375,141.6875)"/>
<path d="M0 0 C6.6 0 13.2 0 20 0 C23.99924892 9.79126461 27.25239779 19.69261999 30.3125 29.8125 C30.6122876 30.80064697 30.9120752 31.78879395 31.22094727 32.80688477 C34.16823892 42.53162834 37.08890716 52.26436717 40 62 C46.5692698 44.26971869 46.5692698 44.26971869 52.17529297 26.22119141 C54.69237838 17.33825944 57.89967962 8.69305518 61 0 C67.6 0 74.2 0 81 0 C80.20255891 4.78464655 79.30359352 8.14811275 77.5625 12.5625 C74.47277926 20.55781283 71.65983519 28.64468628 68.875 36.75 C68.45549072 37.96888916 68.03598145 39.18777832 67.60375977 40.44360352 C65.30937093 47.12926686 63.05036045 53.82503135 60.84399414 60.5402832 C59.73440866 63.77403321 58.37295969 66.8696519 57 70 C55.3072561 74.32363503 53.65484051 78.66163435 52 83 C44.08 83 36.16 83 28 83 C26.35709237 78.291615 24.7141919 73.58322768 23.0715332 68.87475586 C21.68760328 64.9080004 20.30327586 60.94138396 18.91870117 56.97485352 C13.09655347 40.29252244 13.09655347 40.29252244 10.36328125 32.375 C10.00556641 31.33996338 9.64785156 30.30492676 9.27929688 29.23852539 C8.66265056 27.45196398 8.04787087 25.66475643 7.43554688 23.87670898 C5.75486943 19.01082841 3.90177463 14.26466628 1.85620117 9.53930664 C1 7 1 7 0 0 Z " fill="#0C3B56" transform="translate(885,137)"/>
<path d="M0 0 C5.64227006 3.24011548 9.66902567 8.27555134 12.5625 14.0625 C13.30780203 23.77272077 13.85571492 33.01199118 7.5625 41.0625 C5.08499441 43.67738161 2.56481673 46.06095551 -0.4375 48.0625 C-1.0975 48.0625 -1.7575 48.0625 -2.4375 48.0625 C-2.4375 60.2725 -2.4375 72.4825 -2.4375 85.0625 C-8.7075 85.0625 -14.9775 85.0625 -21.4375 85.0625 C-21.1075 73.1825 -20.7775 61.3025 -20.4375 49.0625 C-22.0875 48.4025 -23.7375 47.7425 -25.4375 47.0625 C-32.13441752 41.06705993 -35.93769746 35.89590965 -36.7109375 26.87109375 C-37.07319636 18.87552321 -36.43253883 12.51586052 -31.4375 6.0625 C-22.65906383 -2.33159133 -11.55935541 -5.1750345 0 0 Z " fill="#0A949F" transform="translate(271.4375,175.9375)"/>
<path d="M0 0 C0.5776436 5.81922443 0.8924873 10.59017397 -2.625 15.5 C-6.23074133 19.65850828 -10.5264687 22.17067708 -16 23 C-20.79814365 23.26656354 -24.61529109 23.04619749 -29 21 C-31.9930487 18.24324462 -32.88752748 16.56236259 -33.6875 12.5625 C-32.86021372 8.2756529 -31.73056252 6.81212931 -28.31640625 4.21875 C-23.82014217 1.85309335 -18.99464356 1.48867542 -14 1 C-13.05769531 0.89042969 -12.11539063 0.78085938 -11.14453125 0.66796875 C-7.39095721 0.25213706 -3.7828351 0 0 0 Z " fill="#FAFAFA" transform="translate(860,183)"/>
<path d="M0 0 C3.51224053 2.53208038 6.6687024 5.05772611 8.6875 8.9375 C9.1825 13.3925 9.1825 13.3925 9.6875 17.9375 C-2.1925 17.9375 -14.0725 17.9375 -26.3125 17.9375 C-26.3125 11.28789288 -25.24404763 8.94808652 -21.3125 3.9375 C-14.93856721 -1.84350881 -8.23499823 -2.64141453 0 0 Z " fill="#F6F6F5" transform="translate(1015.3125,152.0625)"/>
<path d="M0 0 C4.84085176 2.28840265 8.0546056 5.53983133 11 10 C11.495 14.455 11.495 14.455 12 19 C0.12 19 -11.76 19 -24 19 C-22.87290663 9.98325304 -22.87290663 9.98325304 -18.5625 5.5625 C-17.75941406 4.71816406 -16.95632813 3.87382812 -16.12890625 3.00390625 C-11.5491291 -1.30696655 -5.98734225 -0.55714456 0 0 Z " fill="#F6F6F5" transform="translate(481,151)"/>
<path d="M0 0 C6.93 0 13.86 0 21 0 C21 38.28 21 76.56 21 116 C13.74 116 6.48 116 -1 116 C-1 99.83 -1 83.66 -1 67 C-0.67 67 -0.34 67 0 67 C0 82.84 0 98.68 0 115 C12.40344124 115.46428059 12.40344124 115.46428059 17 110 C17.59078436 107.86623207 17.59078436 107.86623207 17.50552368 105.55969238 C17.51654617 104.67648819 17.52756866 103.793284 17.53892517 102.88331604 C17.53075272 101.92215378 17.52258026 100.96099152 17.51416016 99.97070312 C17.52128525 98.95241928 17.52841034 97.93413544 17.53575134 96.88499451 C17.55506051 93.51688338 17.54674749 90.14939826 17.5390625 86.78125 C17.54896492 84.44241413 17.56090443 82.10358607 17.57479858 79.76477051 C17.60720597 73.60464162 17.61755693 67.44469061 17.62164307 61.28448486 C17.63038969 51.42385597 17.6658242 41.56337352 17.7138176 31.7028656 C17.72642982 28.25502102 17.72564226 24.80736012 17.72354126 21.35949707 C17.73012062 19.24942889 17.73712668 17.13936198 17.74462891 15.02929688 C17.74050491 14.06813461 17.73638092 13.10697235 17.73213196 12.11668396 C17.7375148 11.23347977 17.74289764 10.35027557 17.7484436 9.44030762 C17.74877909 8.67488396 17.74911457 7.9094603 17.74946022 7.12084198 C18 5 18 5 20 1 C13.4 1 6.8 1 0 1 C0 0.67 0 0.34 0 0 Z " fill="#2E455E" transform="translate(773,105)"/>
<path d="M0 0 C0.66 0.33 1.32 0.66 2 1 C2 47.2 2 93.4 2 141 C1.01 140.67 0.02 140.34 -1 140 C-1.17720409 122.18933084 -1.34288091 104.37859373 -1.49477577 86.56769085 C-1.56557043 78.29807698 -1.6401594 70.02852962 -1.72363281 61.7590332 C-1.79636524 54.55267052 -1.86202745 47.34628434 -1.91914403 40.13978034 C-1.94964476 36.32279071 -1.98372328 32.50590761 -2.02626419 28.6890316 C-2.06617456 25.09816167 -2.09664739 21.5073366 -2.11981392 17.9163208 C-2.13486869 15.96663587 -2.15999179 14.01703688 -2.18537903 12.06745911 C-2.19104385 10.91059601 -2.19670868 9.75373291 -2.20254517 8.56181335 C-2.2117631 7.55429362 -2.22098103 6.54677389 -2.23047829 5.50872326 C-2 3 -2 3 0 0 Z " fill="#4A5A76" transform="translate(96,120)"/>
<path d="M0 0 C0.33 0 0.66 0 1 0 C1.0154612 1.6591745 1.0154612 1.6591745 1.03123474 3.35186768 C1.12893883 13.76970733 1.23167015 24.18748685 1.33933926 34.60522842 C1.39453257 39.96124469 1.4479469 45.31726646 1.49731445 50.67333984 C1.54501088 55.84103911 1.59735572 61.00867219 1.65294075 66.17629242 C1.67334036 68.14905909 1.69205738 70.12184389 1.70907402 72.09464264 C1.73317095 74.855154 1.76321841 77.61554066 1.79467773 80.37597656 C1.8004332 81.19381119 1.80618866 82.01164581 1.81211853 82.85426331 C1.85822462 86.40734954 2.09267918 89.57578488 3 93 C3.09154469 94.3413392 3.13776717 95.68632314 3.14526367 97.03076172 C3.15164352 97.81192352 3.15802338 98.59308533 3.16459656 99.3979187 C3.16570938 100.2334024 3.1668222 101.06888611 3.16796875 101.9296875 C3.17296135 103.23161545 3.17296135 103.23161545 3.17805481 104.55984497 C3.18311123 106.39389517 3.18546353 108.22795455 3.18530273 110.06201172 C3.18748665 112.85790282 3.20564881 115.65339755 3.22460938 118.44921875 C3.22754413 120.23437366 3.22952838 122.01953043 3.23046875 123.8046875 C3.23765427 124.63612274 3.24483978 125.46755798 3.25224304 126.32418823 C3.23427472 130.92319635 2.88074469 134.71248658 1 139 C-5.75383918 143.84891018 -15.58454479 141.72085569 -23.28979492 140.87402344 C-29.89815738 140.15272545 -36.41419215 139.76295726 -43.0625 139.75 C-43.8887085 139.74121826 -44.71491699 139.73243652 -45.56616211 139.72338867 C-49.9181238 139.74378637 -52.96217082 140.25150883 -57 142 C-57.99 141.67 -58.98 141.34 -60 141 C-62.5808926 141.08744008 -65.11691478 141.22868495 -67.6875 141.4375 C-68.38939453 141.48970703 -69.09128906 141.54191406 -69.81445312 141.59570312 C-71.54338054 141.72507865 -73.27175355 141.86182531 -75 142 C-72.38180499 139.26279612 -71.04427302 138.05777003 -67.13998413 137.84178162 C-65.91864777 137.82623734 -64.6973114 137.81069305 -63.43896484 137.79467773 C-62.41269202 137.77962865 -62.41269202 137.77962865 -61.36568642 137.76427555 C-59.14747141 137.73285318 -56.92923855 137.70810411 -54.7109375 137.68359375 C-53.34284884 137.66519374 -51.97476597 137.64635725 -50.60668945 137.6270752 C-45.52952831 137.55858754 -40.4522559 137.49856038 -35.375 137.4375 C-18.359375 137.2209375 -18.359375 137.2209375 -1 137 C-0.67 91.79 -0.34 46.58 0 0 Z " fill="#354F5C" transform="translate(304,123)"/>
<path d="M0 0 C3.22618733 2.0790985 4.8669302 3.80039529 7 7 C7 11.63927042 6.47554341 13.48022 3.3125 16.9375 C-0.33592584 19.20916137 -1.8124623 19.89096547 -6 19 C-8.8125 16.5625 -8.8125 16.5625 -11 14 C-11.33 13.67 -11.66 13.34 -12 13 C-12.6984127 6.01587302 -12.6984127 6.01587302 -9.9375 2 C-6.23727467 -0.51930235 -4.3968344 -0.7066341 0 0 Z " fill="#F7F8F7" transform="translate(148,160)"/>
<path d="M0 0 C3.0625 2.0625 3.0625 2.0625 5 5 C5.625 8.5 5.625 8.5 5 12 C2.5625 14.875 2.5625 14.875 0 17 C-0.33 17.33 -0.66 17.66 -1 18 C-4.07993146 18.41065753 -6.04218246 18.67147453 -9 18 C-11.4887287 16.04498468 -12.85683939 13.93792276 -14 11 C-14.06698967 7.04760929 -13.5620478 4.91332767 -11.5 1.5625 C-7.72931651 -0.79417718 -4.31989817 -0.87627828 0 0 Z " fill="#F8F9F7" transform="translate(264,191)"/>
<path d="M0 0 C2.86830829 2.01391859 4.61592935 3.45434983 5.48046875 6.93359375 C5.75501158 10.85881416 5.22076904 12.66884645 3 16 C-0.31160095 18.20773397 -2.15003259 18.81363414 -6.0625 18.546875 C-9.78819693 17.495267 -11.12606223 15.22083055 -13 12 C-13.68359886 7.67054058 -13.5279283 5.80949006 -11.125 2.125 C-7.3595398 -1.6404602 -5.11205791 -1.21303069 0 0 Z " fill="#FBFBFA" transform="translate(212,114)"/>
<path d="M0 0 C6.27 0 12.54 0 19 0 C20 1 20 1 20.11352539 4.96899414 C20.1133662 6.74105607 20.10766785 8.5131226 20.09765625 10.28515625 C20.0962413 11.21597519 20.09482635 12.14679413 20.09336853 13.1058197 C20.08775172 16.09141191 20.0751964 19.07693029 20.0625 22.0625 C20.05748716 24.08137913 20.05292388 26.10025943 20.04882812 28.11914062 C20.03777683 33.07945572 20.02050095 38.03971532 20 43 C19.01 43.495 19.01 43.495 18 44 C17.67 30.47 17.34 16.94 17 3 C10.07 2.505 10.07 2.505 3 2 C2.34 1.67 1.68 1.34 1 1 C1 39.61 1 78.22 1 118 C0.67 118 0.34 118 0 118 C0 79.06 0 40.12 0 0 Z " fill="#434E5B" transform="translate(613,102)"/>
<path d="M0 0 C6.27 0 12.54 0 19 0 C19 3.3 19 6.6 19 10 C18.67 10 18.34 10 18 10 C17.67 7.03 17.34 4.06 17 1 C12.38 1.33 7.76 1.66 3 2 C2.98969254 2.98527679 2.97938507 3.97055359 2.96876526 4.98568726 C2.87114647 14.25629802 2.76842347 23.52683992 2.66066074 32.79733849 C2.60541979 37.56376174 2.55199791 42.33019112 2.50268555 47.09667969 C2.45505929 51.6937976 2.40271711 56.29083953 2.34705925 60.88786697 C2.32662781 62.64457948 2.30791605 64.40131282 2.29092598 66.15806198 C2.26689942 68.61245025 2.23684255 71.06669426 2.20532227 73.52099609 C2.1995668 74.25251389 2.19381134 74.98403168 2.18788147 75.73771667 C2.11405216 80.77189568 2.11405216 80.77189568 1 83 C6.94 83 12.88 83 19 83 C19 83.33 19 83.66 19 84 C12.73 84 6.46 84 0 84 C0 56.28 0 28.56 0 0 Z " fill="#2E4455" transform="translate(1060,137)"/>
<path d="M0 0 C0.99 0 1.98 0 3 0 C3 31.35 3 62.7 3 95 C2.01 94.67 1.02 94.34 0 94 C0 62.98 0 31.96 0 0 Z " fill="#2E3B5B" transform="translate(411,125)"/>
<path d="M0 0 C0.33 0 0.66 0 1 0 C1.16973431 3.94661138 1.33002717 7.89349101 1.48217773 11.84082031 C1.56078534 13.83157584 1.64652429 15.8220457 1.73242188 17.8125 C1.78076172 19.08867188 1.82910156 20.36484375 1.87890625 21.6796875 C1.94960327 23.42354736 1.94960327 23.42354736 2.02172852 25.20263672 C2.00549611 28.03947783 1.84500339 30.60178615 1.51367188 33.3984375 C0.70190116 40.89180766 0.87668903 48.41867938 0.90234375 55.9453125 C0.90421242 57.56769771 0.9056342 59.1900835 0.90663147 60.81246948 C0.91042134 65.05055339 0.92022084 69.28860218 0.93133545 73.52667236 C0.9416261 77.86413091 0.94614538 82.20159522 0.95117188 86.5390625 C0.96184681 95.02605765 0.97888002 103.51302444 1 112 C2.65 112 4.3 112 6 112 C6 112.33 6 112.66 6 113 C3.69 113 1.38 113 -1 113 C-1.02333003 98.41428805 -1.04091327 83.82857897 -1.05181217 69.24285221 C-1.05697491 62.47089579 -1.06401718 55.69895095 -1.07543945 48.92700195 C-1.08644714 42.39775574 -1.09227625 35.86851706 -1.09487724 29.33926201 C-1.09673199 26.84206388 -1.10035354 24.34486645 -1.10573006 21.84767342 C-1.11293684 18.36335931 -1.1139911 14.87909569 -1.11352539 11.39477539 C-1.11712067 10.35108795 -1.12071594 9.30740051 -1.12442017 8.23208618 C-1.1230455 7.28832626 -1.12167084 6.34456635 -1.12025452 5.37220764 C-1.12117631 4.54720292 -1.1220981 3.7221982 -1.12304783 2.87219334 C-1 1 -1 1 0 0 Z " fill="#173954" transform="translate(705,107)"/>
<path d="M0 0 C5.25503563 7.88255345 4 16.75912035 4 26 C-15.14 26 -34.28 26 -54 26 C-54 27.65 -54 29.3 -54 31 C-54.33 31 -54.66 31 -55 31 C-55 29.02 -55 27.04 -55 25 C-28.27 24.505 -28.27 24.505 -1 24 C-0.13684154 18.82104924 -0.03962134 17.57757128 -1 13 C-0.9173572 10.72598998 -0.76851511 8.45366618 -0.5625 6.1875 C-0.46066406 5.02605469 -0.35882812 3.86460937 -0.25390625 2.66796875 C-0.17011719 1.78753906 -0.08632812 0.90710938 0 0 Z " fill="#29445C" transform="translate(1043,159)"/>
<path d="M0 0 C9.57 0 19.14 0 29 0 C29 0.33 29 0.66 29 1 C20.42 1 11.84 1 3 1 C1.76197886 4.71406343 1.82343149 8.18130369 1.79467773 12.05151367 C1.78477814 12.87125168 1.77487854 13.69098969 1.76467896 14.53556824 C1.73307991 17.24633898 1.7083128 19.95712725 1.68359375 22.66796875 C1.66302285 24.54698646 1.64202634 26.42599955 1.62062073 28.30500793 C1.56541414 33.2517015 1.5159986 38.19843674 1.46777344 43.14520264 C1.41754813 48.19254262 1.36186743 53.23982207 1.30664062 58.28710938 C1.19907632 68.19135454 1.09762747 78.09565225 1 88 C0.67 88 0.34 88 0 88 C0 58.96 0 29.92 0 0 Z " fill="#FBF2EC" transform="translate(415,125)"/>
<path d="M0 0 C27.72 0 55.44 0 84 0 C84 1.98 84 3.96 84 6 C83.01 4.02 83.01 4.02 82 2 C55.6 2 29.2 2 2 2 C1.67 7.28 1.34 12.56 1 18 C0.67 18 0.34 18 0 18 C0 12.06 0 6.12 0 0 Z " fill="#0D3043" transform="translate(361,106)"/>
<path d="M0 0 C0.33 0 0.66 0 1 0 C2.09034615 4.3983449 2.13487401 8.68498906 2.11352539 13.18676758 C2.11367142 13.99704407 2.11381744 14.80732056 2.1139679 15.64215088 C2.11327347 18.30963862 2.10550312 20.97705577 2.09765625 23.64453125 C2.0957904 25.4982652 2.09436728 27.35199964 2.09336853 29.20573425 C2.08955651 34.07682667 2.07973746 38.94788912 2.06866455 43.81896973 C2.05842215 48.79272049 2.05386485 53.7664761 2.04882812 58.74023438 C2.038114 68.49350273 2.02105338 78.24674887 2 88 C0.02 88 -1.96 88 -4 88 C-4 87.34 -4 86.68 -4 86 C-1.525 85.505 -1.525 85.505 1 85 C0.83734146 84.00906845 0.67468292 83.0181369 0.50709534 81.99717712 C-0.05905422 78.01222428 -0.13404714 74.06466993 -0.11352539 70.04516602 C-0.11367142 69.28336533 -0.11381744 68.52156464 -0.1139679 67.73667908 C-0.1132765 65.24239154 -0.10552061 62.74818059 -0.09765625 60.25390625 C-0.09578932 58.51513205 -0.09436672 56.77635732 -0.09336853 55.0375824 C-0.089565 50.47887703 -0.07975334 45.92020392 -0.06866455 41.36151123 C-0.05840375 36.70260047 -0.05386093 32.04368445 -0.04882812 27.38476562 C-0.038129 18.2564963 -0.02107876 9.12825084 0 0 Z " fill="#0F4059" transform="translate(410,132)"/>
<path d="M0 0 C11.55 0 23.1 0 35 0 C34.67 1.32 34.34 2.64 34 4 C29.8001981 3.93101959 25.6013512 3.84300555 21.40234375 3.73754883 C19.97472086 3.70435206 18.54696837 3.67630369 17.11914062 3.65356445 C15.06324185 3.61991987 13.00852488 3.56760438 10.953125 3.51171875 C9.71723633 3.48553467 8.48134766 3.45935059 7.20800781 3.43237305 C4 3 4 3 0 0 Z " fill="#395C6E" transform="translate(98,261)"/>
<path d="M0 0 C0 16.5 0 33 0 50 C-1.32 50.66 -2.64 51.32 -4 52 C-3.67 51.01 -3.34 50.02 -3 49 C-2.91294571 47.41966808 -2.88232048 45.83589622 -2.88647461 44.25317383 C-2.88655014 43.29240433 -2.88662567 42.33163483 -2.88670349 41.3417511 C-2.89186478 40.30729355 -2.89702606 39.272836 -2.90234375 38.20703125 C-2.9037587 37.14586594 -2.90517365 36.08470062 -2.90663147 34.99137878 C-2.91223394 31.59839065 -2.92478686 28.20546823 -2.9375 24.8125 C-2.94251468 22.51367283 -2.94707764 20.21484462 -2.95117188 17.91601562 C-2.96220417 12.27732128 -2.9789447 6.63866534 -3 1 C-1 0 -1 0 0 0 Z " fill="#2F979B" transform="translate(202,146)"/>
<path d="M0 0 C0.64402771 -0.00014603 1.28805542 -0.00029205 1.95159912 -0.0004425 C4.08348949 0.00025499 6.21529283 0.00803973 8.34716797 0.01586914 C9.82404533 0.0177339 11.30092331 0.01915753 12.77780151 0.02015686 C16.66747746 0.02397747 20.55711614 0.03380387 24.44677734 0.04486084 C28.41487117 0.05508476 32.38297102 0.05965658 36.35107422 0.06469727 C44.13885163 0.07542654 51.92659833 0.0924975 59.71435547 0.11352539 C59.71435547 0.44352539 59.71435547 0.77352539 59.71435547 1.11352539 C59.12411087 1.12161224 58.53386627 1.1296991 57.92573547 1.13803101 C51.77733978 1.22414972 45.62926378 1.32365666 39.48120117 1.4309082 C37.18731051 1.46916944 34.89336044 1.50402728 32.59936523 1.53540039 C29.30023987 1.58111245 26.00152251 1.63909761 22.70263672 1.69946289 C21.67850174 1.7110141 20.65436676 1.72256531 19.59919739 1.73446655 C18.63857895 1.75433624 17.67796051 1.77420593 16.68823242 1.79467773 C15.84662064 1.8080014 15.00500885 1.82132507 14.13789368 1.83505249 C11.62030738 2.01244046 11.62030738 2.01244046 9.09098816 3.19595337 C6.71435547 4.11352539 6.71435547 4.11352539 3.71435547 3.11352539 C1.13346287 3.20096547 -1.40255931 3.34221034 -3.97314453 3.55102539 C-4.67503906 3.60323242 -5.37693359 3.65543945 -6.10009766 3.70922852 C-7.82902507 3.83860404 -9.55739808 3.97535071 -11.28564453 4.11352539 C-7.5447444 0.20258434 -5.41490003 -0.01029449 0 0 Z " fill="#456472" transform="translate(240.28564453125,260.886474609375)"/>
<path d="M0 0 C0.99 0.33 1.98 0.66 3 1 C-1.19800615 5.38088958 -5.74700784 9.21963804 -10.4375 13.0625 C-11.17548828 13.67416016 -11.91347656 14.28582031 -12.67382812 14.91601562 C-16.65471628 18.18919033 -20.64966312 21.23536436 -25 24 C-25 22.68 -25 21.36 -25 20 C-24.01 20 -23.02 20 -22 20 C-22 19.34 -22 18.68 -22 18 C-21.34 18 -20.68 18 -20 18 C-20 17.34 -20 16.68 -20 16 C-17.35153397 13.63785462 -15.38483604 12.12827868 -12 11 C-11.54625 10.236875 -11.0925 9.47375 -10.625 8.6875 C-8.77065024 5.62069079 -6.98487652 3.96565039 -4 2 C-2.68 2 -1.36 2 0 2 C0 1.34 0 0.68 0 0 Z " fill="#364D5F" transform="translate(133,88)"/>
<path d="M0 0 C0.66 0 1.32 0 2 0 C2.103125 0.598125 2.20625 1.19625 2.3125 1.8125 C2.83254644 4.07972457 2.83254644 4.07972457 4.5625 5.5 C6 7 6 7 6 11 C9.12492251 11.05791844 12.24970766 11.09356746 15.375 11.125 C16.70917969 11.15013672 16.70917969 11.15013672 18.0703125 11.17578125 C18.92109375 11.18222656 19.771875 11.18867188 20.6484375 11.1953125 C21.43395996 11.20578613 22.21948242 11.21625977 23.02880859 11.22705078 C25.234465 11.17990127 25.234465 11.17990127 27 9 C27.39764263 7.01178687 27.73775349 5.01055661 28 3 C28.66 3 29.32 3 30 3 C30.33 2.34 30.66 1.68 31 1 C30.4721307 5.48688907 29.70509 8.73727501 28 13 C20.08 13 12.16 13 4 13 C0 2 0 2 0 0 Z " fill="#0C2C47" transform="translate(909,207)"/>
<path d="M0 0 C0.33 0.99 0.66 1.98 1 3 C-6.83054677 11.18029824 -6.83054677 11.18029824 -12 14 C-12.33 14.66 -12.66 15.32 -13 16 C-14.8125 17.1875 -14.8125 17.1875 -17 18 C-19.13671875 17.55078125 -19.13671875 17.55078125 -21 17 C-14.03914614 11.28310101 -7.04719722 5.6102416 0 0 Z " fill="#264B57" transform="translate(99,87)"/>
<path d="M0 0 C0.33 0.66 0.66 1.32 1 2 C1.66 2 2.32 2 3 2 C2.67 20.15 2.34 38.3 2 57 C2.99 57.33 3.98 57.66 5 58 C3.68 58 2.36 58 1 58 C0.505 29.29 0.505 29.29 0 0 Z " fill="#132E4A" transform="translate(666,162)"/>
<path d="M0 0 C4.30963279 1.05707974 7.00334151 1.75871632 10 5 C11.38731705 6.23877068 12.7835192 7.46764783 14.1875 8.6875 C14.90292969 9.31011719 15.61835938 9.93273437 16.35546875 10.57421875 C16.89816406 11.04472656 17.44085938 11.51523438 18 12 C17.01 12.66 16.02 13.32 15 14 C14.08476562 13.21753906 13.16953125 12.43507813 12.2265625 11.62890625 C11.02613205 10.60666469 9.82560626 9.58453507 8.625 8.5625 C8.02171875 8.04623047 7.4184375 7.52996094 6.796875 6.99804688 C3.59551296 4.21367706 3.59551296 4.21367706 0 2 C0 1.34 0 0.68 0 0 Z " fill="#284459" transform="translate(245,72)"/>
<path d="M0 0 C4.41611151 6.62416726 3.10380152 15.33022073 3 23 C1.68 23.33 0.36 23.66 -1 24 C-0.814375 23.113125 -0.62875 22.22625 -0.4375 21.3125 C0.17019088 18.15808271 0.17019088 18.15808271 -0.5 15.71875 C-1.10780046 12.41383498 -0.86632889 9.52961779 -0.5625 6.1875 C-0.46066406 5.02605469 -0.35882812 3.86460937 -0.25390625 2.66796875 C-0.17011719 1.78753906 -0.08632812 0.90710938 0 0 Z " fill="#143F5C" transform="translate(1043,159)"/>
<path d="M0 0 C1.98 0 3.96 0 6 0 C6 0.66 6 1.32 6 2 C12.93 2.33 19.86 2.66 27 3 C26.67 3.66 26.34 4.32 26 5 C6.03738318 5.46787383 6.03738318 5.46787383 1 1.375 C0.67 0.92125 0.34 0.4675 0 0 Z " fill="#26364F" transform="translate(457,217)"/>
<path d="M0 0 C0.33 0 0.66 0 1 0 C1.33 14.52 1.66 29.04 2 44 C1.01 43.67 0.02 43.34 -1 43 C-0.67 28.81 -0.34 14.62 0 0 Z " fill="#253B53" transform="translate(412,176)"/>
<path d="M0 0 C0.53238281 0.26167969 1.06476563 0.52335937 1.61328125 0.79296875 C-0.46587034 2.58969223 -2.54972526 4.38039402 -4.63671875 6.16796875 C-5.51650391 6.92980469 -5.51650391 6.92980469 -6.4140625 7.70703125 C-9.26837808 10.14442433 -11.87481605 12.34995923 -15.38671875 13.79296875 C-15.07375172 9.97477103 -13.0521606 8.24166274 -10.22851562 5.83789062 C-9.40963867 5.1659668 -9.40963867 5.1659668 -8.57421875 4.48046875 C-7.77274414 3.77954102 -7.77274414 3.77954102 -6.95507812 3.06445312 C-2.96604945 -0.25728416 -2.96604945 -0.25728416 0 0 Z " fill="#2F4B5D" transform="translate(174.38671875,56.20703125)"/>
<path d="M0 0 C0.33 0 0.66 0 1 0 C1.02505615 1.28688721 1.0501123 2.57377441 1.07592773 3.8996582 C1.17001572 8.66880454 1.27023313 13.43780571 1.37231445 18.20678711 C1.41565803 20.27185676 1.45733352 22.33696212 1.49731445 24.40209961 C1.55503083 27.36843635 1.61872151 30.33459345 1.68359375 33.30078125 C1.70030624 34.2258699 1.71701874 35.15095856 1.73423767 36.1040802 C1.75418289 36.96474594 1.77412811 37.82541168 1.79467773 38.7121582 C1.81022202 39.46938675 1.8257663 40.2266153 1.84178162 41.00679016 C1.93632323 43.20924815 1.93632323 43.20924815 3 46 C1.515 46.495 1.515 46.495 0 47 C0 31.49 0 15.98 0 0 Z " fill="#14374B" transform="translate(773,173)"/>
<path d="M0 0 C6.6 0 13.2 0 20 0 C19.34 1.32 18.68 2.64 18 4 C18 3.34 18 2.68 18 2 C12.72 1.67 7.44 1.34 2 1 C1.67 7.6 1.34 14.2 1 21 C0.67 21 0.34 21 0 21 C0 14.07 0 7.14 0 0 Z " fill="#0C2B3F" transform="translate(773,106)"/>
<path d="M0 0 C6.93 0 13.86 0 21 0 C20.67 1.32 20.34 2.64 20 4 C19.33613281 3.84660156 18.67226563 3.69320312 17.98828125 3.53515625 C14.39844078 2.89226979 10.82204581 2.64966009 7.1875 2.4375 C6.14819336 2.37272461 6.14819336 2.37272461 5.08789062 2.30664062 C3.39211314 2.20138547 1.69607948 2.10027137 0 2 C0 1.34 0 0.68 0 0 Z " fill="#23414E" transform="translate(492,197)"/>
<path d="M0 0 C1.08861328 0.38478516 1.08861328 0.38478516 2.19921875 0.77734375 C-1.77080305 4.99549192 -6.10918409 8.38961478 -10.80078125 11.77734375 C-11.13078125 10.78734375 -11.46078125 9.79734375 -11.80078125 8.77734375 C-10.42432466 7.23895109 -9.02383093 5.72203794 -7.61328125 4.21484375 C-6.83597656 3.36792969 -6.05867187 2.52101563 -5.2578125 1.6484375 C-2.80078125 -0.22265625 -2.80078125 -0.22265625 0 0 Z " fill="#2E4D5F" transform="translate(155.80078125,70.22265625)"/>
<path d="M0 0 C0.33 0.66 0.66 1.32 1 2 C-6.56072254 4.91076403 -12.64241044 5.18399149 -20.625 4.1875 C-22.13126953 4.02411133 -22.13126953 4.02411133 -23.66796875 3.85742188 C-26.11458735 3.58945889 -28.55757528 3.30346054 -31 3 C-31 2.67 -31 2.34 -31 2 C-30.16750732 1.97494385 -29.33501465 1.9498877 -28.47729492 1.92407227 C-25.38537167 1.82887306 -22.29361148 1.72964328 -19.2019043 1.62768555 C-17.20696681 1.56312994 -15.21188071 1.5032217 -13.21679688 1.44335938 C-11.33637695 1.38051758 -11.33637695 1.38051758 -9.41796875 1.31640625 C-8.26063232 1.27974854 -7.1032959 1.24309082 -5.91088867 1.20532227 C-2.9356554 1.11671491 -2.9356554 1.11671491 0 0 Z " fill="#264E60" transform="translate(303,260)"/>
<path d="M0 0 C1.32 0.33 2.64 0.66 4 1 C4 2.65 4 4.3 4 6 C4.99 6.33 5.98 6.66 7 7 C9 10 9 10 9 13 C9.99 13 10.98 13 12 13 C11.67 13.99 11.34 14.98 11 16 C5.68133749 12.1656154 2.66552007 8.00331733 0 2 C0 1.34 0 0.68 0 0 Z " fill="#2E3E51" transform="translate(440,198)"/>
<path d="M0 0 C0 0.99 0 1.98 0 3 C-1.423125 3.61875 -1.423125 3.61875 -2.875 4.25 C-6.00716624 6.0040131 -6.86500606 6.70851757 -8 10 C-8.66 10 -9.32 10 -10 10 C-10.66 12.97 -11.32 15.94 -12 19 C-12.66 19 -13.32 19 -14 19 C-13.47580521 12.01073613 -10.04847121 6.53014175 -4.8125 2 C-2 0 -2 0 0 0 Z " fill="#35959F" transform="translate(198,99)"/>
<path d="M0 0 C0.66 0.33 1.32 0.66 2 1 C0.89718873 2.27200971 -0.20730769 3.54255853 -1.3125 4.8125 C-1.92738281 5.52019531 -2.54226562 6.22789063 -3.17578125 6.95703125 C-4.07876953 7.96830078 -4.07876953 7.96830078 -5 9 C-5.5053125 9.5671875 -6.010625 10.134375 -6.53125 10.71875 C-8.76485456 12.66721356 -11.12580045 12.68064449 -14 13 C-9.55618306 8.41283413 -4.79771501 4.21237287 0 0 Z " fill="#314F5A" transform="translate(162,35)"/>
<path d="M0 0 C1.13566406 -0.00515625 2.27132812 -0.0103125 3.44140625 -0.015625 C6.4375 0.25 6.4375 0.25 9.4375 2.25 C8.53128906 2.29898438 7.62507813 2.34796875 6.69140625 2.3984375 C-0.27151291 2.82579127 -6.80671429 3.50281404 -13.5625 5.25 C-9.43563845 0.71045229 -6.08822698 -0.02770524 0 0 Z " fill="#4B9EA2" transform="translate(144.5625,142.75)"/>
<path d="M0 0 C5.60552266 0.03455277 10.01471632 0.25936493 14.8125 3.3125 C16.75 5.5 16.75 5.5 17.8125 7.3125 C16.8225 7.3125 15.8325 7.3125 14.8125 7.3125 C14.8125 6.6525 14.8125 5.9925 14.8125 5.3125 C13.9771875 5.126875 13.9771875 5.126875 13.125 4.9375 C10.8125 4.3125 10.8125 4.3125 8.65625 3.28125 C5.06782069 2.05881804 1.7385227 2.09448412 -2 2.1875 C-2.69287109 2.19652344 -3.38574219 2.20554687 -4.09960938 2.21484375 C-5.79572395 2.23823843 -7.49165871 2.27410359 -9.1875 2.3125 C-6.27872023 -0.59627977 -4.0503626 0.01199515 0 0 Z " fill="#358E95" transform="translate(207.1875,96.6875)"/>
<path d="M0 0 C0.33 0 0.66 0 1 0 C1 4.62 1 9.24 1 14 C-3.95 14 -8.9 14 -14 14 C-13.67 13.34 -13.34 12.68 -13 12 C-10.27734375 11.5859375 -10.27734375 11.5859375 -6.9375 11.375 C-5.83277344 11.30023438 -4.72804688 11.22546875 -3.58984375 11.1484375 C-2.73519531 11.09945312 -1.88054687 11.05046875 -1 11 C-0.67 7.37 -0.34 3.74 0 0 Z " fill="#3F576E" transform="translate(1046,171)"/>
<path d="M0 0 C9.57 0 19.14 0 29 0 C29 1.98 29 3.96 29 6 C28.34 4.68 27.68 3.36 27 2 C18.09 1.67 9.18 1.34 0 1 C0 0.67 0 0.34 0 0 Z " fill="#042B3F" transform="translate(416,106)"/>
<path d="M0 0 C0.33 0.66 0.66 1.32 1 2 C1.99 2.33 2.98 2.66 4 3 C4 3.33 4 3.66 4 4 C-2.435 4.495 -2.435 4.495 -9 5 C-8.67 3.68 -8.34 2.36 -8 1 C-5.23735711 0.40267181 -2.83967231 0 0 0 Z " fill="#009EA4" transform="translate(147,280)"/>
<path d="M0 0 C0.99 0 1.98 0 3 0 C3 1.32 3 2.64 3 4 C3.66 4 4.32 4 5 4 C5.721875 4.763125 6.44375 5.52625 7.1875 6.3125 C10.41396766 9.3955691 12.86796474 10.46061431 17 12 C15.02 12.99 15.02 12.99 13 14 C3.7149491 7.29540989 3.7149491 7.29540989 0 3 C0 2.01 0 1.02 0 0 Z " fill="#23354B" transform="translate(976,205)"/>
<path d="M0 0 C0.66 0.99 1.32 1.98 2 3 C-4.435 8.94 -4.435 8.94 -11 15 C-11.66 14.67 -12.32 14.34 -13 14 C-12.56429687 13.57589844 -12.12859375 13.15179688 -11.6796875 12.71484375 C-7.54991517 8.64764373 -3.71958871 4.44536212 0 0 Z " fill="#309298" transform="translate(197,198)"/>
<path d="M0 0 C0 1.32 0 2.64 0 4 C-6.27 4 -12.54 4 -19 4 C-19.33 3.34 -19.66 2.68 -20 2 C-18.95199219 2.02320313 -17.90398438 2.04640625 -16.82421875 2.0703125 C-15.44531963 2.08907303 -14.0664128 2.10727293 -12.6875 2.125 C-11.65206055 2.15013672 -11.65206055 2.15013672 -10.59570312 2.17578125 C-6.41472822 2.21617714 -3.70027815 0 0 0 Z " fill="#12314B" transform="translate(830,159)"/>
<path d="M0 0 C6.10419901 1.2457549 9.54831603 3.69715653 14 8 C13.67 8.66 13.34 9.32 13 10 C7.65978754 8.49806525 3.86352256 4.82517494 0 1 C0 0.67 0 0.34 0 0 Z " fill="#26455A" transform="translate(286,105)"/>
<path d="M0 0 C0.99 0 1.98 0 3 0 C3 0.66 3 1.32 3 2 C3.8971875 2.1546875 3.8971875 2.1546875 4.8125 2.3125 C7.32332981 3.10161794 8.28175296 4.04744654 10 6 C10.66 6.66 11.32 7.32 12 8 C11.01 8.66 10.02 9.32 9 10 C7.49147143 8.90751403 5.99337169 7.80061501 4.5 6.6875 C3.24703125 5.76517578 3.24703125 5.76517578 1.96875 4.82421875 C1.3190625 4.22222656 0.669375 3.62023437 0 3 C0 2.01 0 1.02 0 0 Z " fill="#2A465C" transform="translate(265,87)"/>
<path d="M0 0 C0.33 0.99 0.66 1.98 1 3 C-0.98 3.99 -0.98 3.99 -3 5 C-3 5.66 -3 6.32 -3 7 C-4.53125 8.2890625 -4.53125 8.2890625 -6.5 9.625 C-7.1496875 10.07101563 -7.799375 10.51703125 -8.46875 10.9765625 C-8.9740625 11.31429687 -9.479375 11.65203125 -10 12 C-10.66 11.34 -11.32 10.68 -12 10 C-8.04 6.7 -4.08 3.4 0 0 Z " fill="#2D4D57" transform="translate(127,64)"/>
<path d="M0 0 C6.6 0 13.2 0 20 0 C19.67 1.32 19.34 2.64 19 4 C19 3.01 19 2.02 19 1 C16.72886197 1.14100857 14.45809275 1.28796755 12.1875 1.4375 C10.92292969 1.51871094 9.65835938 1.59992188 8.35546875 1.68359375 C5.00818107 1.87184547 5.00818107 1.87184547 2 3 C1.67 4.65 1.34 6.3 1 8 C0.34 7.67 -0.32 7.34 -1 7 C-0.67 4.69 -0.34 2.38 0 0 Z " fill="#183245" transform="translate(946,137)"/>
<path d="M0 0 C0.66 0.33 1.32 0.66 2 1 C1.09373216 2.2989839 0.17450463 3.58893167 -0.75 4.875 C-1.26046875 5.59429687 -1.7709375 6.31359375 -2.296875 7.0546875 C-4.12885187 9.14717484 -5.36670921 10.12558665 -8 11 C-10.25 10.625 -10.25 10.625 -12 10 C-10.82630859 9.04287109 -10.82630859 9.04287109 -9.62890625 8.06640625 C-8.61699219 7.24011719 -7.60507813 6.41382812 -6.5625 5.5625 C-5.55316406 4.73878906 -4.54382813 3.91507812 -3.50390625 3.06640625 C-1.70216039 1.58798996 -1.70216039 1.58798996 0 0 Z " fill="#37515D" transform="translate(90,94)"/>
<path d="M0 0 C3.71060708 2.11939179 6.99883918 4.4923892 10.3125 7.1875 C11.19550781 7.90292969 12.07851563 8.61835937 12.98828125 9.35546875 C13.65214844 9.89816406 14.31601562 10.44085938 15 11 C13.16015625 11.6484375 13.16015625 11.6484375 11 12 C8.4375 9.625 8.4375 9.625 6 7 C5.01 6.67 4.02 6.34 3 6 C2.3125 3.9375 2.3125 3.9375 2 2 C1.34 2 0.68 2 0 2 C0 1.34 0 0.68 0 0 Z " fill="#334352" transform="translate(303,88)"/>
<path d="M0 0 C7.38461538 1.35384615 7.38461538 1.35384615 10.5 4.625 C10.995 5.40875 11.49 6.1925 12 7 C11.34 7.66 10.68 8.32 10 9 C8.33043913 7.69118353 6.66441696 6.37785174 5 5.0625 C4.071875 4.33160156 3.14375 3.60070313 2.1875 2.84765625 C1.465625 2.23792969 0.74375 1.62820312 0 1 C0 0.67 0 0.34 0 0 Z " fill="#32495C" transform="translate(224,56)"/>
<path d="M0 0 C0 2 0 2 -2.3125 4.375 C-3.199375 5.24125 -4.08625 6.1075 -5 7 C-6.02813611 8.31175986 -7.04084432 9.6369893 -8 11 C-8.66 10.67 -9.32 10.34 -10 10 C-9.43867066 6.4628562 -8.30442253 5.00738321 -5.5625 2.75 C-4.94503906 2.22921875 -4.32757812 1.7084375 -3.69140625 1.171875 C-2 0 -2 0 0 0 Z " fill="#224050" transform="translate(544,140)"/>
<path d="M0 0 C0.66 0 1.32 0 2 0 C1.42676569 3.86933162 -0.38953552 6.15222057 -3 9 C-3.66 9 -4.32 9 -5 9 C-5 10.65 -5 12.3 -5 14 C-5.33 14 -5.66 14 -6 14 C-6.67693777 9.48708152 -5.73930443 7.19111429 -3.125 3.625 C-1.5078125 1.5390625 -1.5078125 1.5390625 0 0 Z " fill="#37515E" transform="translate(227,265)"/>
<path d="M0 0 C0.99 1.32 1.98 2.64 3 4 C-4.28571429 8.57142857 -4.28571429 8.57142857 -9 8 C-8.38125 7.9175 -7.7625 7.835 -7.125 7.75 C-4.84645565 7.20721701 -4.84645565 7.20721701 -3.9375 5.125 C-3.4734375 4.073125 -3.4734375 4.073125 -3 3 C-1.375 1.25 -1.375 1.25 0 0 Z " fill="#2D475A" transform="translate(494,213)"/>
<path d="M0 0 C3.96 0.33 7.92 0.66 12 1 C12 1.33 12 1.66 12 2 C11.28714844 2.01417969 10.57429688 2.02835938 9.83984375 2.04296875 C2.93626349 2.38675404 -0.76379732 3.46195768 -6 8 C-6 6.68 -6 5.36 -6 4 C-5.01 4 -4.02 4 -3 4 C-3 3.34 -3 2.68 -3 2 C-2.01 2 -1.02 2 0 2 C0 1.34 0 0.68 0 0 Z " fill="#2C4254" transform="translate(468,149)"/>
<path d="M0 0 C0.33 0 0.66 0 1 0 C1.16435547 0.90492187 1.16435547 0.90492187 1.33203125 1.828125 C2.50797128 7.93684987 2.50797128 7.93684987 6 13 C5.01 13.33 4.02 13.66 3 14 C-0.5058565 9.50812136 -1.55913813 6.70320894 -1 1 C-0.67 0.67 -0.34 0.34 0 0 Z " fill="#298F9A" transform="translate(198,119)"/>
<path d="M0 0 C0.99 0.66 1.98 1.32 3 2 C2.01 2.33 1.02 2.66 0 3 C-0.0825 4.11375 -0.165 5.2275 -0.25 6.375 C-0.4975 7.57125 -0.745 8.7675 -1 10 C-3.046875 11.2265625 -3.046875 11.2265625 -5 12 C-4.54738642 10.56068883 -4.08767021 9.12361001 -3.625 7.6875 C-3.24214844 6.48673828 -3.24214844 6.48673828 -2.8515625 5.26171875 C-2 3 -2 3 0 0 Z " fill="#2E4A5A" transform="translate(975,151)"/>
<path d="M0 0 C1.32 0.66 2.64 1.32 4 2 C1.86567858 5.20148213 1.31580104 5.52206739 -2.125 6.6875 C-2.84945312 6.93886719 -3.57390625 7.19023437 -4.3203125 7.44921875 C-5.15175781 7.72185547 -5.15175781 7.72185547 -6 8 C-6.66 7.34 -7.32 6.68 -8 6 C-6.20963542 5.0234375 -4.41927083 4.046875 -2.62890625 3.0703125 C-0.83381685 2.08589976 -0.83381685 2.08589976 0 0 Z " fill="#294655" transform="translate(1022,198)"/>
<path d="M0 0 C0 3.63 0 7.26 0 11 C-0.33 11 -0.66 11 -1 11 C-1 8.36 -1 5.72 -1 3 C-5.29 2.67 -9.58 2.34 -14 2 C-14 1.67 -14 1.34 -14 1 C-12.41693353 0.83081732 -10.83353281 0.66476064 -9.25 0.5 C-8.36828125 0.4071875 -7.4865625 0.314375 -6.578125 0.21875 C-4 0 -4 0 0 0 Z " fill="#C7C9C6" transform="translate(860,183)"/>
<path d="M0 0 C6.27 0 12.54 0 19 0 C19 0.33 19 0.66 19 1 C13.72 1 8.44 1 3 1 C2.67 2.32 2.34 3.64 2 5 C1.34 4.67 0.68 4.34 0 4 C0 2.68 0 1.36 0 0 Z " fill="#122F46" transform="translate(885,137)"/>
<path d="M0 0 C0.66 0.33 1.32 0.66 2 1 C-0.85696384 4.01568405 -3.24638571 6.24831333 -7 8 C-8.70921589 9.5412312 -8.70921589 9.5412312 -10 11 C-10.66 10.34 -11.32 9.68 -12 9 C-8.04 6.03 -4.08 3.06 0 0 Z " fill="#324B55" transform="translate(190,13)"/>
<path d="M0 0 C0.66 0 1.32 0 2 0 C1.67 1.32 1.34 2.64 1 4 C-3.3164922 4.76173392 -6.74433453 5.16063604 -11 4 C-7.00042393 1.93125376 -4.43559483 0.62343609 0 2 C0 1.34 0 0.68 0 0 Z " fill="#324859" transform="translate(315,280)"/>
<path d="M0 0 C2 2 2 2 2 5 C2.66 5 3.32 5 4 5 C4.33 7.97 4.66 10.94 5 14 C3 13 3 13 2.1484375 11.07421875 C1.89320313 10.28660156 1.63796875 9.49898437 1.375 8.6875 C0.98441406 7.51767578 0.98441406 7.51767578 0.5859375 6.32421875 C0 4 0 4 0 0 Z " fill="#1C3249" transform="translate(970,190)"/>
<path d="M0 0 C6.6 0 13.2 0 20 0 C20 1.65 20 3.3 20 5 C19.5877417 4.51104248 19.1754834 4.02208496 18.75073242 3.51831055 C16.62846375 1.67778776 15.75064629 1.64472226 12.98828125 1.70703125 C12.23095703 1.71669922 11.47363281 1.72636719 10.69335938 1.73632812 C9.90767578 1.76146484 9.12199219 1.78660156 8.3125 1.8125 C7.51521484 1.82603516 6.71792969 1.83957031 5.89648438 1.85351562 C3.93070033 1.88882911 1.96526418 1.94263553 0 2 C0 1.34 0 0.68 0 0 Z " fill="#062B42" transform="translate(704,106)"/>
<path d="M0 0 C3.17784538 1.17697977 4.29162105 2.35723578 6.5 5.0625 C8.6657966 8.08630591 8.6657966 8.08630591 11.3125 8.875 C11.869375 8.91625 12.42625 8.9575 13 9 C13 9.66 13 10.32 13 11 C8.02753179 10.84931915 5.73646624 8.14378072 2.453125 4.7890625 C1 3 1 3 0 0 Z " fill="#243047" transform="translate(808,208)"/>
<path d="M0 0 C0.66 0 1.32 0 2 0 C2.103125 0.598125 2.20625 1.19625 2.3125 1.8125 C2.82484936 4.07883283 2.82484936 4.07883283 4.5625 5.4375 C6 7 6 7 6.1875 9.6875 C6.125625 10.450625 6.06375 11.21375 6 12 C5.01 12.495 5.01 12.495 4 13 C3.32942113 11.2097939 2.6636531 9.41778511 2 7.625 C1.62875 6.62726563 1.2575 5.62953125 0.875 4.6015625 C0 2 0 2 0 0 Z " fill="#1E344A" transform="translate(909,207)"/>
<path d="M0 0 C1.91752758 2.87629137 2.41891387 4.13921859 2.875 7.4375 C2.99617188 8.19933594 3.11734375 8.96117187 3.2421875 9.74609375 C3 12 3 12 -1 16 C-0.67 10.72 -0.34 5.44 0 0 Z " fill="#2D5064" transform="translate(1043,159)"/>
<path d="M0 0 C3.98175544 2.10148204 6.35039045 4.36905358 9 8 C8.34 8.66 7.68 9.32 7 10 C3.26235493 8.13117747 1.76083557 3.65712004 0 0 Z " fill="#243A4A" transform="translate(1119,138)"/>
<path d="M0 0 C0 4.0333534 -1.60879918 5.83517538 -4 9 C-4.66 9 -5.32 9 -6 9 C-6 9.99 -6 10.98 -6 12 C-6.66 12 -7.32 12 -8 12 C-6.64994369 6.32976351 -4.1842771 3.82042691 0 0 Z " fill="#35949E" transform="translate(130,148)"/>
<path d="M0 0 C-3 2 -3 2 -6 2 C-7.96301592 5.50538557 -8.95902388 9.13351728 -10 13 C-10.33 13 -10.66 13 -11 13 C-11.32470459 8.86001651 -11.4304413 6.66000999 -9.125 3.125 C-5.99631499 -0.00368501 -4.3125835 -0.11348904 0 0 Z " fill="#D6DCE1" transform="translate(210,113)"/>
<path d="M0 0 C1.98 0 3.96 0 6 0 C6 0.66 6 1.32 6 2 C7.65 2 9.3 2 11 2 C11 2.66 11 3.32 11 4 C6.35108046 4.32434322 3.77593392 3.776422 0 1 C0 0.67 0 0.34 0 0 Z " fill="#2C4059" transform="translate(457,217)"/>
<path d="M0 0 C0.33 0.99 0.66 1.98 1 3 C0.38125 3.2475 -0.2375 3.495 -0.875 3.75 C-3.15001528 4.82396211 -3.15001528 4.82396211 -4 7.0625 C-5 9 -5 9 -7.125 9.75 C-8.053125 9.87375 -8.053125 9.87375 -9 10 C-8.34 9.67 -7.68 9.34 -7 9 C-6.731875 8.4225 -6.46375 7.845 -6.1875 7.25 C-4.61890427 4.27792388 -2.42512233 2.29748431 0 0 Z " fill="#254959" transform="translate(1088,140)"/>
<path d="M0 0 C3.48670834 1.1094072 6.77484237 2.26337666 10 4 C9.67 4.99 9.34 5.98 9 7 C5.18315774 5.44499019 2.80804268 2.96404505 0 0 Z " fill="#374E5F" transform="translate(209,44)"/>
<path d="M0 0 C3.38749978 1.45178562 5.45161209 3.36940603 8 6 C8.99 6.66 9.98 7.32 11 8 C9.68 8.33 8.36 8.66 7 9 C5.83037314 7.69013727 4.66437056 6.3770374 3.5 5.0625 C2.8503125 4.33160156 2.200625 3.60070312 1.53125 2.84765625 C0 1 0 1 0 0 Z " fill="#2D3F51" transform="translate(76,274)"/>
<path d="M0 0 C0.66 0.99 1.32 1.98 2 3 C0.02 5.31 -1.96 7.62 -4 10 C-4.66 8.68 -5.32 7.36 -6 6 C-4.35 5.67 -2.7 5.34 -1 5 C-0.67 3.35 -0.34 1.7 0 0 Z " fill="#274157" transform="translate(1040,202)"/>
<path d="M0 0 C0.66 0.99 1.32 1.98 2 3 C0.1875 6 0.1875 6 -2 9 C-2.99 9 -3.98 9 -5 9 C-3.50163895 5.88801935 -1.80066242 2.9465385 0 0 Z " fill="#2B4856" transform="translate(581,194)"/>
<path d="M0 0 C1.32 0.33 2.64 0.66 4 1 C2.71372289 2.17260611 1.42080217 3.3379283 0.125 4.5 C-0.59429687 5.1496875 -1.31359375 5.799375 -2.0546875 6.46875 C-4 8 -4 8 -6 8 C-6 7.01 -6 6.02 -6 5 C-5.38125 4.9175 -4.7625 4.835 -4.125 4.75 C-1.81562433 4.18741541 -1.81562433 4.18741541 -0.75 1.9375 C-0.5025 1.298125 -0.255 0.65875 0 0 Z " fill="#3D5465" transform="translate(104,112)"/>
<path d="M0 0 C0.66 0.33 1.32 0.66 2 1 C-1.61328125 5.6875 -1.61328125 5.6875 -3 7 C-3.99 7 -4.98 7 -6 7 C-4.60667426 3.63279613 -3.0210714 2.0140476 0 0 Z " fill="#328F99" transform="translate(246,177)"/>
<path d="M0 0 C2.8125 -0.3125 2.8125 -0.3125 6 0 C7.875 2.5 7.875 2.5 9 5 C5.30581799 5 3.22163822 3.71820705 0 2 C0 1.34 0 0.68 0 0 Z " fill="#324959" transform="translate(1101,152)"/>
<path d="M0 0 C-0.33 0.99 -0.66 1.98 -1 3 C-1.495 2.690625 -1.99 2.38125 -2.5 2.0625 C-5.97986781 0.58355618 -9.24028509 0.37597149 -13 0 C-13 -0.33 -13 -0.66 -13 -1 C-8.39782024 -2.21822405 -4.319599 -2.1597995 0 0 Z " fill="#344A59" transform="translate(661,153)"/>
<path d="M0 0 C0.33 0.66 0.66 1.32 1 2 C-1.25 4.5625 -1.25 4.5625 -4 7 C-5.32 6.67 -6.64 6.34 -8 6 C-5.36 4.02 -2.72 2.04 0 0 Z " fill="#315059" transform="translate(147,48)"/>
<path d="M0 0 C0.66 0.33 1.32 0.66 2 1 C0.20578369 5.0369867 -1.20551875 7.64480474 -5 10 C-3.125 4.25 -3.125 4.25 -2 2 C-1.34 2 -0.68 2 0 2 C0 1.34 0 0.68 0 0 Z " fill="#293847" transform="translate(325,269)"/>
<path d="M0 0 C0.33 0.66 0.66 1.32 1 2 C-1.17508418 6.69360269 -1.17508418 6.69360269 -4.1875 7.8125 C-4.785625 7.874375 -5.38375 7.93625 -6 8 C-4.26440562 4.942048 -2.61527381 2.36620011 0 0 Z " fill="#1B3D50" transform="translate(814,179)"/>
<path d="M0 0 C0.33 0 0.66 0 1 0 C1.49230769 7.38461538 1.49230769 7.38461538 -1 10.5 C-1.66 10.995 -2.32 11.49 -3 12 C-2.25749403 7.91621717 -1.17076699 3.98060777 0 0 Z " fill="#3C5261" transform="translate(529,155)"/>
<path d="M0 0 C3.82946843 1.45255699 5.12050295 3.42895561 7 7 C4.20171644 6.61402985 3.1794116 6.19863427 1.25 4.0625 C0 2 0 2 0 0 Z " fill="#1E3648" transform="translate(869,143)"/>
<path d="M0 0 C0.33 0.99 0.66 1.98 1 3 C-0.09445838 3.86657116 -1.20097781 4.71792724 -2.3125 5.5625 C-2.92738281 6.03816406 -3.54226562 6.51382813 -4.17578125 7.00390625 C-4.77777344 7.33261719 -5.37976563 7.66132812 -6 8 C-6.99 7.67 -7.98 7.34 -9 7 C-6.03 4.69 -3.06 2.38 0 0 Z " fill="#2F4D57" transform="translate(109,79)"/>
<path d="M0 0 C3.98381075 2.16264012 6.88983545 4.71211176 10 8 C7.61435923 7.42415568 5.33317216 6.77772405 3 6 C2.3125 3.9375 2.3125 3.9375 2 2 C1.34 2 0.68 2 0 2 C0 1.34 0 0.68 0 0 Z " fill="#314153" transform="translate(263,56)"/>
<path d="M0 0 C1.32 0.33 2.64 0.66 4 1 C4 2.65 4 4.3 4 6 C4.66 6 5.32 6 6 6 C6 6.66 6 7.32 6 8 C4.125 7.375 4.125 7.375 2 6 C0.75 2.875 0.75 2.875 0 0 Z " fill="#22384C" transform="translate(440,198)"/>
<path d="M0 0 C0.66 0.99 1.32 1.98 2 3 C1.5390625 5.26171875 1.5390625 5.26171875 0.625 7.6875 C0.18027344 8.89986328 0.18027344 8.89986328 -0.2734375 10.13671875 C-0.51320313 10.75160156 -0.75296875 11.36648437 -1 12 C-1.66 12 -2.32 12 -3 12 C-2.40075776 7.80530429 -1.42500059 3.99000166 0 0 Z " fill="#2E4253" transform="translate(931,182)"/>
<path d="M0 0 C3.98381075 2.16264012 6.88983545 4.71211176 10 8 C9.01 8.495 9.01 8.495 8 9 C8 8.34 8 7.68 8 7 C7.4225 6.731875 6.845 6.46375 6.25 6.1875 C3.94449957 4.97070811 1.97943808 3.69666121 0 2 C0 1.34 0 0.68 0 0 Z " fill="#384754" transform="translate(213,16)"/>
<path d="M0 0 C0.66 0.33 1.32 0.66 2 1 C0.375 6.75 0.375 6.75 -3 9 C-3.33 8.01 -3.66 7.02 -4 6 C-3.34 5.01 -2.68 4.02 -2 3 C-1.34 3 -0.68 3 0 3 C0 2.01 0 1.02 0 0 Z " fill="#213F52" transform="translate(320,273)"/>
<path d="M0 0 C0.66 0.66 1.32 1.32 2 2 C1.625 5.625 1.625 5.625 1 9 C-0.32 8.67 -1.64 8.34 -3 8 C-2.34 7.01 -1.68 6.02 -1 5 C-0.61500109 3.34450469 -0.27206865 1.6777567 0 0 Z " fill="#1F9396" transform="translate(269,198)"/>
<path d="M0 0 C0.33 0.66 0.66 1.32 1 2 C-0.65 3.65 -2.3 5.3 -4 7 C-5.32 6.34 -6.64 5.68 -8 5 C-7.05125 4.54625 -6.1025 4.0925 -5.125 3.625 C-1.99686321 2.19761746 -1.99686321 2.19761746 0 0 Z " fill="#264A5A" transform="translate(856,199)"/>
<path d="M0 0 C0.99 0.33 1.98 0.66 3 1 C0.525 4.465 0.525 4.465 -2 8 C-2.99 7.34 -3.98 6.68 -5 6 C-4.360625 5.566875 -3.72125 5.13375 -3.0625 4.6875 C-0.73253997 3.08760823 -0.73253997 3.08760823 0 0 Z " fill="#273B4D" transform="translate(595,204)"/>
<path d="M0 0 C3 3 3 3 3.1875 6.1875 C3.0946875 7.5796875 3.0946875 7.5796875 3 9 C2.34 9 1.68 9 1 9 C0.67 6.03 0.34 3.06 0 0 Z " fill="#273F54" transform="translate(1024,161)"/>
<path d="M0 0 C0.66 0 1.32 0 2 0 C2.625 2.8125 2.625 2.8125 3 6 C2.01 7.485 2.01 7.485 1 9 C0.63877119 7.68942607 0.28619689 6.37646376 -0.0625 5.0625 C-0.35833984 3.96615234 -0.35833984 3.96615234 -0.66015625 2.84765625 C-0.77230469 2.23792969 -0.88445313 1.62820312 -1 1 C-0.67 0.67 -0.34 0.34 0 0 Z " fill="#213E56" transform="translate(664,156)"/>
<path d="M0 0 C0.66 0 1.32 0 2 0 C2 2.64 2 5.28 2 8 C1.34 7.01 0.68 6.02 0 5 C-0.99 5 -1.98 5 -3 5 C-1.625 2.5 -1.625 2.5 0 0 Z " fill="#D5D6D4" transform="translate(858,209)"/>
<path d="M0 0 C0.33 0.99 0.66 1.98 1 3 C0 4 0 4 -2.28515625 4.09765625 C-3.65994141 4.08025391 -3.65994141 4.08025391 -5.0625 4.0625 C-5.98160156 4.05347656 -6.90070313 4.04445312 -7.84765625 4.03515625 C-8.55792969 4.02355469 -9.26820313 4.01195312 -10 4 C-9.67 3.34 -9.34 2.68 -9 2 C-7.6078125 2.061875 -7.6078125 2.061875 -6.1875 2.125 C-2.84190281 2.27136339 -2.84190281 2.27136339 0 0 Z " fill="#469BA3" transform="translate(151,176)"/>
<path d="M0 0 C1.9375 0.75 1.9375 0.75 4 2 C4.75 4.125 4.75 4.125 5 6 C3.68 5.67 2.36 5.34 1 5 C0.67 3.35 0.34 1.7 0 0 Z " fill="#1A384C" transform="translate(1036,149)"/>
<path d="M0 0 C0.66 1.32 1.32 2.64 2 4 C0.02 4 -1.96 4 -4 4 C-4 3.01 -4 2.02 -4 1 C-2.68 0.67 -1.36 0.34 0 0 Z " fill="#019FA1" transform="translate(266,256)"/>
<path d="M0 0 C1.32 0.33 2.64 0.66 4 1 C4.33 2.32 4.66 3.64 5 5 C4.01 5 3.02 5 2 5 C1.34 4.34 0.68 3.68 0 3 C0 2.01 0 1.02 0 0 Z " fill="#263E53" transform="translate(536,209)"/>
<path d="M0 0 C0.99 0.66 1.98 1.32 3 2 C2.34 2 1.68 2 1 2 C1 2.66 1 3.32 1 4 C-2 6 -2 6 -4.1875 5.625 C-4.785625 5.41875 -5.38375 5.2125 -6 5 C-5.38125 4.731875 -4.7625 4.46375 -4.125 4.1875 C-1.7004767 3.04443152 -1.7004767 3.04443152 0 0 Z " fill="#2B4754" transform="translate(491,198)"/>
<path d="M0 0 C-0.33 0.99 -0.66 1.98 -1 3 C-1.66 3 -2.32 3 -3 3 C-3.33 3.99 -3.66 4.98 -4 6 C-4.99 6.33 -5.98 6.66 -7 7 C-3.86206897 0 -3.86206897 0 0 0 Z " fill="#315360" transform="translate(641,141)"/>
<path d="M0 0 C3.91402949 1.26941497 5.79072873 2.51167694 8 6 C7.01 6 6.02 6 5 6 C5 5.34 5 4.68 5 4 C4.360625 3.896875 3.72125 3.79375 3.0625 3.6875 C2.381875 3.460625 1.70125 3.23375 1 3 C0.67 2.01 0.34 1.02 0 0 Z " fill="#3B95A1" transform="translate(217,98)"/>
<path d="M0 0 C0 0.99 0 1.98 0 3 C-1.96466413 4.06775224 -3.96855359 5.06553465 -6 6 C-6.66 5.67 -7.32 5.34 -8 5 C-2.25 0 -2.25 0 0 0 Z " fill="#3E909C" transform="translate(198,99)"/>
<path d="M0 0 C0 1.65 0 3.3 0 5 C-1.65 5 -3.3 5 -5 5 C-5 4.34 -5 3.68 -5 3 C-1.42307692 0 -1.42307692 0 0 0 Z " fill="#254C5F" transform="translate(129,91)"/>
<path d="M0 0 C1.32 0.33 2.64 0.66 4 1 C1.69 2.65 -0.62 4.3 -3 6 C-2 2 -2 2 0 0 Z " fill="#394E5D" transform="translate(192,40)"/>
</svg>
